<svg width="37" height="38" viewBox="0 0 37 38" fill="none" xmlns="http://www.w3.org/2000/svg">
<path d="M2.94328 28.4374C2.94328 29.9967 3.55765 31.4922 4.65123 32.5948C5.74482 33.6974 7.22803 34.3168 8.77459 34.3168M23.9457 7.60465L29.3552 2.14855C30.0842 1.41333 31.0729 1.00018 32.104 1C33.1351 0.999816 34.124 1.41261 34.8532 2.14757C35.5824 2.88253 35.9922 3.87945 35.9923 4.91902C35.9925 5.95859 35.5831 6.95566 34.8542 7.69088L29.4427 13.1509" stroke="#52281C" stroke-width="2" stroke-linecap="round" stroke-linejoin="round"/>
<path d="M27.2501 9.80937C29.0506 11.6244 30.0902 14.0678 30.1538 16.6341C30.2175 19.2003 29.3004 21.693 27.5922 23.5966L27.2501 23.9572L23.6211 27.6162C22.4595 28.7862 21.7596 30.3424 21.6521 31.9944L21.6365 32.4451V34.2756C21.6365 34.9164 21.3838 35.5299 20.9368 35.9826C20.7728 36.149 20.556 36.252 20.3243 36.2735C20.0926 36.295 19.8608 36.2336 19.6694 36.1002L19.5334 35.9826L1.29108 17.5918C1.19881 17.4989 1.12561 17.3886 1.07566 17.2672C1.02571 17.1458 1 17.0157 1 16.8843C1 16.7528 1.02571 16.6227 1.07566 16.5013C1.12561 16.3799 1.19881 16.2696 1.29108 16.1768C1.67595 15.7887 2.17744 15.5457 2.71392 15.485L2.98411 15.4693H4.79764C6.44596 15.4693 8.03013 14.8637 9.26249 13.776L9.58904 13.4683L13.2181 9.80937L13.5291 9.50952C15.4139 7.76747 17.893 6.82625 20.4493 6.88211C23.0056 6.93798 25.4419 7.98662 27.2501 9.80937Z" stroke="#52281C" stroke-width="2" stroke-linecap="round" stroke-linejoin="round"/>
</svg>
