<svg width="35" height="36" viewBox="0 0 35 36" fill="none" xmlns="http://www.w3.org/2000/svg">
<path d="M11.6641 8.81944V14.6976H16.0381V8.81944H18.9542V14.6976H23.3282V8.81944H26.2442V14.6976L27.7023 14.6991C28.8179 14.699 29.8915 15.1288 30.7032 15.9004C31.515 16.672 32.0036 17.7272 32.069 18.8501L32.0763 19.1088V20.5787C32.0763 22.0692 31.5266 23.4303 30.6197 24.4666L30.6183 30.868C30.6183 31.2579 30.4647 31.6318 30.1912 31.9074C29.9178 32.1831 29.547 32.3379 29.1603 32.3379H5.83204C5.44535 32.3379 5.0745 32.1831 4.80107 31.9074C4.52764 31.6318 4.37403 31.2579 4.37403 30.868V24.4592C3.59059 23.5593 3.09643 22.441 2.95684 21.2519L2.92476 20.88L2.91602 20.5787V19.1088C2.91595 17.984 3.34223 16.9017 4.10763 16.0833C4.87302 15.265 5.91968 14.7724 7.03345 14.7064L7.29006 14.6991L8.74807 14.6976V8.81944H11.6641ZM13.125 24.4607L13.0463 24.5533C12.0906 25.6053 10.7876 26.2705 9.38085 26.4245L9.04551 26.451L8.74807 26.4583C8.24506 26.4583 7.75662 26.3936 7.29006 26.2731V29.3981H27.7023V26.2731C26.7478 26.5205 25.7468 26.5204 24.7923 26.2729C23.8379 26.0254 22.9611 25.5385 22.2435 24.8576L22.0248 24.6371L21.8702 24.4651L21.7142 24.6386C20.7687 25.6393 19.5031 26.2713 18.1406 26.423L17.7878 26.4524L17.4962 26.4583C15.9703 26.4606 14.505 25.8564 13.4181 24.7767L13.1994 24.546L13.125 24.4607ZM27.7023 17.6389H7.29006C6.93294 17.6389 6.58826 17.7711 6.32139 18.0103C6.05453 18.2496 5.88403 18.5793 5.84225 18.9368L5.83204 19.1088V20.5361L5.83642 20.7521C5.8803 21.5006 6.20619 22.2039 6.74743 22.7181C7.28867 23.2324 8.00436 23.5187 8.74807 23.5185C9.4464 23.5197 10.1219 23.2681 10.6518 22.8095C11.1816 22.3509 11.5305 21.7158 11.6349 21.0197L11.6568 20.7948L11.6641 20.5361C11.7166 18.7016 14.3279 18.6355 14.5641 20.3391L14.5787 20.5361L14.5845 20.7521C14.6253 21.4988 14.9467 22.2017 15.4835 22.7178C16.0202 23.2339 16.7318 23.5244 17.4735 23.5302C18.2152 23.536 18.9312 23.2567 19.4758 22.749C20.0204 22.2414 20.3526 21.5436 20.4049 20.7977L20.4224 20.3832C20.6032 18.684 23.1372 18.684 23.318 20.3832L23.3355 20.7977C23.3876 21.5396 23.7167 22.234 24.2565 22.7409C24.7962 23.2479 25.5065 23.5298 26.2442 23.5298C26.982 23.5298 27.6922 23.2479 28.232 22.7409C28.7718 22.234 29.1009 21.5396 29.153 20.7977L29.1603 20.5787V19.1088C29.1602 18.7488 29.0291 18.4013 28.7918 18.1322C28.5545 17.8632 28.2275 17.6913 27.8728 17.6492L27.7023 17.6389ZM10.2061 1.46991C12.1307 2.7502 12.6308 4.53907 12.3188 5.715C12.1687 6.27988 11.8022 6.76154 11.2999 7.05402C10.7977 7.34649 10.2007 7.42583 9.64038 7.27457C9.08006 7.12331 8.6023 6.75385 8.31219 6.24746C8.02208 5.74107 7.94339 5.13924 8.09342 4.57435C8.52937 2.94276 10.2061 3.67477 10.2061 1.46991ZM17.4962 1.46991C19.4207 2.7502 19.9208 4.53907 19.6088 5.715C19.4588 6.27988 19.0923 6.76154 18.59 7.05402C18.0877 7.34649 17.4908 7.42583 16.9305 7.27457C16.3701 7.12331 15.8924 6.75385 15.6023 6.24746C15.3122 5.74107 15.2335 5.13924 15.3835 4.57435C15.8194 2.94276 17.4962 3.67477 17.4962 1.46991ZM24.7862 1.46991C26.7108 2.7502 27.2109 4.53907 26.8989 5.715C26.7489 6.27988 26.3824 6.76154 25.8801 7.05402C25.3778 7.34649 24.7808 7.42583 24.2205 7.27457C23.6602 7.12331 23.1824 6.75385 22.8923 6.24746C22.6022 5.74107 22.5235 5.13924 22.6736 4.57435C23.1095 2.94276 24.7862 3.67477 24.7862 1.46991Z" fill="#52281C"/>
</svg>
