<svg width="40" height="40" viewBox="0 0 40 40" fill="none" xmlns="http://www.w3.org/2000/svg">
<path d="M37.0112 23.2706C38.3344 22.27 38.6787 21.4344 38.7113 21.3469C38.7369 21.2781 38.75 21.2053 38.75 21.1319V17.6656C38.75 13.9362 31.7738 11.4931 23.9881 10.8644L35.4637 4.48875C35.6351 4.39441 35.7857 4.26637 35.9063 4.11235C36.0269 3.95833 36.1151 3.7815 36.1656 3.5925C36.2172 3.40357 36.2303 3.2062 36.2042 3.01211C36.1781 2.81801 36.1134 2.63111 36.0138 2.4625L35.7294 1.97813C35.5993 1.75681 35.4137 1.57324 35.191 1.44555C34.9683 1.31786 34.7161 1.25046 34.4594 1.25C34.2537 1.25 34.0544 1.30563 33.8669 1.38875L33.8631 1.37875L33.7906 1.42063C33.7694 1.43188 33.7456 1.43563 33.725 1.44813L20 9.44313L6.27437 1.44813C6.05124 1.31817 5.7976 1.2498 5.53937 1.25C5.01813 1.25 4.53187 1.52938 4.26875 1.97875L3.985 2.46375C3.88531 2.63211 3.8205 2.81879 3.79441 3.0127C3.76832 3.20661 3.78148 3.40378 3.83312 3.5925C3.8838 3.78159 3.97214 3.9585 4.09286 4.11262C4.21358 4.26674 4.36417 4.39488 4.53562 4.48938L16.0106 10.8644C8.22563 11.4931 1.25 13.9369 1.25 17.6656V21.1319C1.25 21.2056 1.26313 21.2781 1.28938 21.3475C1.32188 21.4344 1.66625 22.2713 2.98937 23.2706V26.1706L2.57688 26.5594C1.69625 27.3869 1.25 28.2825 1.25 29.2181V32.6844C1.24998 32.7582 1.26332 32.8315 1.28938 32.9006C1.32188 32.9875 1.67562 33.8213 2.98937 34.8175V35.8612C2.98937 36.1812 3.75063 36.44 4.69063 36.44C5.0675 36.44 5.41125 36.3969 5.69313 36.3263C7.33813 37.0163 9.58313 37.6494 12.63 38.0513V38.1725C12.63 38.4912 13.3906 38.75 14.3313 38.75C15.0681 38.75 15.69 38.5894 15.9269 38.3669C17.1788 38.4456 18.5269 38.4931 20.0019 38.4931C21.4769 38.4931 22.8244 38.4456 24.0769 38.3669C24.3106 38.5894 24.9325 38.75 25.67 38.75C26.6094 38.75 27.3713 38.4912 27.3713 38.1725V38.0513C30.4181 37.6488 32.6631 37.0169 34.3088 36.3269C34.5894 36.3963 34.9338 36.44 35.3106 36.44C36.25 36.44 37.0119 36.1812 37.0119 35.8612V34.8169C38.3256 33.8206 38.6794 32.9869 38.7119 32.9006C38.7369 32.8306 38.75 32.7581 38.75 32.6844V29.2181C38.75 28.3156 38.305 27.4331 37.4275 26.5938L37.0112 26.195V23.2706ZM34.1787 2.24C34.308 2.16551 34.4613 2.14505 34.6056 2.18309C34.7498 2.22114 34.8731 2.31459 34.9487 2.44313L35.2331 2.92875C35.2706 2.99183 35.295 3.06182 35.3049 3.13453C35.3148 3.20725 35.3099 3.28121 35.2906 3.35201C35.2713 3.4228 35.238 3.48899 35.1925 3.54663C35.1471 3.60427 35.0906 3.65218 35.0262 3.6875L12.8313 16.0169C12.6906 16.2844 12.4294 16.5506 12.0806 16.7494C11.7537 16.9356 11.4125 17.0275 11.1206 17.0275C10.8094 17.0275 10.5544 16.9231 10.4325 16.7156C10.1969 16.3125 10.5512 15.675 11.2262 15.2919C11.5519 15.1062 11.8919 15.0162 12.1838 15.0162L12.245 15.0175L18.6506 11.2863L19.9994 10.5L34.1787 2.24ZM30.4881 16.0044C30.4281 15.7794 30.3119 15.5644 30.1688 15.3581C33.0238 16.0863 35.1937 17.1081 36.2562 18.2975C35.2269 20.5556 28.8406 22.8319 20 22.8319C11.1594 22.8319 4.77312 20.5556 3.74312 18.2975C4.80562 17.1081 6.97563 16.0869 9.82938 15.3581C9.68625 15.5644 9.57 15.7794 9.51 16.0044C9.39937 16.4181 9.44875 16.8356 9.65 17.1794C9.93563 17.665 10.4706 17.9419 11.1206 17.9419C11.5781 17.9419 12.0775 17.8013 12.5262 17.5456C12.8998 17.3376 13.2232 17.0503 13.4738 16.7037L17.8913 14.2506C18.5937 14.218 19.2968 14.2007 20 14.1988C20.7162 14.1988 21.4163 14.22 22.1075 14.2506L26.525 16.7037C26.7569 17.0325 27.085 17.3256 27.4725 17.5456C27.9213 17.8013 28.4206 17.9419 28.8781 17.9419C29.5281 17.9419 30.0631 17.6656 30.3475 17.1806C30.5494 16.8363 30.5987 16.4187 30.4881 16.0044ZM29.5669 16.7156C29.445 16.9231 29.1894 17.0275 28.8781 17.0275C28.5863 17.0275 28.245 16.9356 27.9187 16.7494C27.5687 16.5506 27.3075 16.2844 27.1681 16.0169L20.9387 12.5575L22.2656 11.82L27.7544 15.0169L27.815 15.0156C28.1069 15.0156 28.4469 15.1062 28.7725 15.2913C29.4469 15.675 29.8019 16.3131 29.5669 16.7156ZM4.9725 3.6875C4.90833 3.65211 4.85191 3.6042 4.8066 3.5466C4.76128 3.48901 4.72799 3.4229 4.7087 3.3522C4.68941 3.2815 4.6845 3.20764 4.69428 3.13501C4.70406 3.06238 4.72832 2.99246 4.76562 2.92938L5.05 2.44313C5.12576 2.31472 5.2491 2.22137 5.39326 2.18334C5.53742 2.14531 5.69076 2.16567 5.82 2.24L19.095 9.97375L17.7244 10.7712L4.9725 3.6875ZM16.5981 11.425L15.4331 12.1037C8.25875 12.7825 2.98937 15.0125 2.98937 17.665C2.98937 20.855 10.6056 23.4412 20.0006 23.4412C29.3944 23.4412 37.0119 20.8544 37.0119 17.665C37.0119 15.0125 31.7406 12.7819 24.5669 12.1037L23.4019 11.425C31.7969 11.9831 38.1463 14.5631 38.1463 17.665C38.1463 19.105 36.7781 20.4312 34.4738 21.4975C34.0963 21.57 33.8131 21.6906 33.6875 21.8344C30.3594 23.1725 25.4637 24.0194 20 24.0194C14.5356 24.0194 9.64062 23.1731 6.31375 21.835C6.18813 21.6912 5.905 21.5706 5.52688 21.4981C3.22313 20.4319 1.855 19.1056 1.855 17.6656C1.855 14.5637 8.20312 11.9831 16.5981 11.425ZM27.2425 24.0887C29.6006 23.7288 31.7875 23.1938 33.6094 22.5006V24.3088C33.6094 24.3394 33.6225 24.3694 33.6356 24.3987C32.1056 24.9912 30.0712 25.5312 27.3719 25.8894V24.3094C27.3712 24.2313 27.325 24.1569 27.2425 24.0887ZM23.9694 24.4675V26.2106C22.75 26.285 21.4369 26.3294 20 26.3294C18.5631 26.3294 17.2506 26.2856 16.0306 26.21V24.4675C17.3406 24.5737 18.6731 24.6287 20 24.6287C21.3269 24.6287 22.6594 24.5737 23.9694 24.4675ZM12.7575 24.0887C12.675 24.1569 12.6287 24.2313 12.6287 24.3088V25.8888C9.92937 25.5306 7.895 24.99 6.36437 24.3987C6.37965 24.3708 6.38881 24.3399 6.39125 24.3081V22.5C8.2125 23.1938 10.3994 23.7288 12.7575 24.0887ZM1.855 21.1319V19.4906C2.35125 20.2137 3.13563 20.87 4.14438 21.4538C3.47438 21.5306 2.98875 21.745 2.98875 21.9988V22.4981C2.08375 21.72 1.855 21.1319 1.855 21.1319ZM3.51813 33.1388C3.195 33.2431 2.98875 33.3875 2.98875 33.5506V34.0513C2.08375 33.2725 1.855 32.6838 1.855 32.6838V31.0437C2.23937 31.6044 2.815 32.1206 3.51813 32.5969V33.1388ZM3.51813 31.8637C2.45938 31.0575 1.855 30.1631 1.855 29.2181C1.855 28.4394 2.25688 27.6944 2.98875 27.0044V29.2181C2.98875 29.7087 3.17813 30.185 3.51813 30.6394V31.8637ZM5.78625 35.6612C5.61313 35.7344 5.23688 35.8306 4.69 35.8306C4.14313 35.8306 3.7675 35.735 3.59375 35.6612V34.625C3.95379 34.7036 4.32149 34.7418 4.69 34.7388C5.06313 34.7388 5.44375 34.7044 5.78625 34.625V35.6612ZM4.12313 33.5413V24.8512C4.30125 24.8725 4.49063 24.8869 4.69 24.8869C4.88938 24.8869 5.07875 24.8731 5.25688 24.8512V33.5413C5.25688 33.7075 5.00313 33.84 4.69 33.84C4.37688 33.84 4.12313 33.7075 4.12313 33.5413ZM5.78625 24.1075C5.61313 24.1812 5.23688 24.2769 4.69 24.2769C4.14313 24.2769 3.7675 24.1812 3.59375 24.1075V23.0713C3.95377 23.1501 4.32146 23.1884 4.69 23.1856C5.06313 23.1856 5.44375 23.1506 5.78625 23.0713V24.1075ZM12.6287 35.8612V37.4406C9.93125 37.0825 7.89437 36.5431 6.36437 35.9525C6.37965 35.9243 6.3888 35.8932 6.39125 35.8612V34.0531C8.2125 34.7469 10.3994 35.2819 12.7575 35.6419C12.675 35.71 12.6287 35.7844 12.6287 35.8612ZM13.1581 35.1006C10.5069 34.7219 8.16438 34.1319 6.31375 33.3881C6.22938 33.2919 6.06938 33.2069 5.86187 33.14V32.4225C7.65312 33.3325 10.1781 34.0594 13.1581 34.505V35.1006ZM15.4262 37.9713C15.2519 38.045 14.8769 38.1406 14.33 38.1406C13.7831 38.1406 13.4069 38.0456 13.2337 37.9713V36.9356C13.5938 37.0142 13.9615 37.0525 14.33 37.05C14.7025 37.05 15.0837 37.0144 15.4262 36.9356V37.9713ZM13.7631 35.8525V27.1619C14.1396 27.2081 14.5204 27.2081 14.8969 27.1619V35.8525C14.8969 36.0175 14.6431 36.1506 14.33 36.1506C14.0169 36.1506 13.7631 36.0175 13.7631 35.8525ZM15.4262 26.4181C15.2519 26.4919 14.8769 26.5875 14.33 26.5875C13.7831 26.5875 13.4069 26.4925 13.2337 26.4181V25.3831C13.5939 25.4612 13.9615 25.4993 14.33 25.4969C14.6985 25.4993 15.0661 25.4611 15.4262 25.3831V26.4181ZM23.9694 37.7663C22.7506 37.8406 21.4344 37.8838 20 37.8838C18.5656 37.8838 17.25 37.8406 16.0306 37.7663V36.0212C17.3406 36.1269 18.6731 36.1825 20 36.1825C21.3269 36.1825 22.6594 36.1269 23.9694 36.0212V37.7663ZM24.4981 35.3681C23.0581 35.4975 21.5556 35.5725 20 35.5725C18.4444 35.5725 16.9412 35.4975 15.5019 35.3681V34.7819C16.9369 34.9163 18.4394 34.995 20 34.995C21.5606 34.995 23.0631 34.9163 24.4981 34.7819V35.3681ZM26.7663 37.9713C26.5925 38.045 26.2169 38.1406 25.67 38.1406C25.1231 38.1406 24.7475 38.0456 24.5737 37.9713V36.9356C24.9338 37.0141 25.3015 37.0525 25.67 37.05C26.0431 37.05 26.4237 37.0144 26.7663 36.9356V37.9713ZM25.1031 35.8525V27.1619C25.4796 27.2081 25.8604 27.2081 26.2369 27.1619V35.8525C26.2369 36.0175 25.9831 36.1506 25.67 36.1506C25.3569 36.1506 25.1031 36.0175 25.1031 35.8525ZM26.7663 26.4181C26.5925 26.4919 26.2169 26.5875 25.67 26.5875C25.1231 26.5875 24.7475 26.4925 24.5737 26.4181V25.3831C24.9339 25.4611 25.3015 25.4992 25.67 25.4969C26.0431 25.4969 26.4237 25.4613 26.7663 25.3831V26.4181ZM27.3713 37.4406V35.8612C27.3713 35.7844 27.325 35.71 27.2431 35.6419C29.6006 35.2819 31.7875 34.7469 33.6094 34.0531V35.8612C33.6094 35.8925 33.6225 35.9225 33.6362 35.9525C32.1063 36.5438 30.0687 37.0825 27.3713 37.4406ZM34.1381 33.1394C33.9306 33.2062 33.7706 33.2912 33.6862 33.3875C31.835 34.1312 29.4931 34.7206 26.8419 35.1V34.5037C29.8219 34.0581 32.3469 33.3312 34.1381 32.4212V33.1394ZM36.4062 35.6612C36.2331 35.7344 35.8569 35.8306 35.31 35.8306C34.7631 35.8306 34.3869 35.735 34.2137 35.6612V34.625C34.5563 34.7044 34.9369 34.7388 35.31 34.7388C35.6831 34.7388 36.0638 34.7044 36.4062 34.625V35.6612ZM34.7431 33.5413V24.8512C34.9212 24.8725 35.1106 24.8869 35.31 24.8869C35.5094 24.8869 35.6987 24.8731 35.8769 24.8512V33.5413C35.8769 33.7075 35.6231 33.84 35.31 33.84C34.9969 33.84 34.7431 33.7075 34.7431 33.5413ZM36.4062 24.1075C36.2331 24.1812 35.8569 24.2769 35.31 24.2769C34.7631 24.2769 34.3869 24.1819 34.2137 24.1075V23.0713C34.5563 23.1506 34.9369 23.1856 35.31 23.1856C35.6831 23.1856 36.0638 23.1506 36.4062 23.0713V24.1075ZM38.145 32.6844C38.145 32.6844 37.9162 33.2731 37.0112 34.0519V33.5506C37.0112 33.3875 36.805 33.2431 36.4819 33.1388V32.5969C37.185 32.12 37.7606 31.6044 38.145 31.0437V32.6844ZM38.145 29.2181C38.145 30.1637 37.5406 31.0575 36.4819 31.8637V30.6394C36.8219 30.1844 37.0112 29.7087 37.0112 29.2181V27.0362C37.7219 27.7162 38.145 28.4513 38.145 29.2181ZM35.8556 21.4531C36.8644 20.8694 37.6488 20.2138 38.145 19.49V21.1313C38.145 21.1313 37.9162 21.7187 37.0112 22.4975V21.9981C37.0112 21.7444 36.5256 21.53 35.8556 21.4531Z" fill="#52281C"/>
</svg>
