<svg width="72" height="74" viewBox="0 0 72 74" fill="none" xmlns="http://www.w3.org/2000/svg">
<g filter="url(#filter0_d_13_88)">
<path d="M16.4127 0L4.75514 0.0614384L4.67374 1.33628L27.2737 5.26833L27.5139 4.0242L16.4127 0ZM57.882 2.8876L57.8419 7.44938L58.5091 7.32651L59.1629 7.44938L59.1228 2.8876H57.882ZM14.4553 5.29905L14.2138 7.29579L9.78802 11.3507L10.0335 29.1064L10.8554 22.9011L12.1297 22.5478H12.167L12.0296 12.5641L16.2926 8.66279L16.6529 5.68303L14.4553 5.29905ZM58.5091 9.27717L49.6228 10.8746L49.7029 12.1494H67.3153L67.3953 10.8746L58.5091 9.27717ZM49.7029 14.3919L49.6228 15.6667L58.5091 17.2641L67.3953 15.6667L67.3153 14.3919H49.7029ZM57.7485 19.0766L57.7218 22.2714C58.0954 22.3481 58.469 22.4557 58.856 22.5478L59.2963 22.6707L59.2696 19.0766L58.5091 19.2148L57.7485 19.0766ZM19.4015 23.7919C17.1999 23.7612 14.9317 24.0838 12.5833 24.7289L12.2017 27.6165C15.3052 27.1096 22.3369 26.5567 29.2217 29.859C29.7554 29.6132 30.3158 29.3828 30.8762 29.1985L31.0363 27.9697C27.4872 25.1743 23.5911 23.8534 19.4015 23.7919ZM51.5842 23.7919C47.3946 23.8534 43.4985 25.1743 39.9493 27.9697L40.1094 29.1985C40.6698 29.3828 41.2302 29.6132 41.7639 29.859C48.6488 26.5567 55.6804 27.1096 58.7893 27.6165L58.4023 24.7289C56.054 24.0838 53.7857 23.7612 51.5842 23.7919ZM17.1465 29.7822C14.7569 29.7822 12.8635 30.0586 11.8508 30.2583L10.9101 37.3698L20.6423 39.0747C21.99 35.9567 24.0447 33.3149 26.5799 31.4564C23.1908 30.1508 19.8551 29.7822 17.1465 29.7822ZM53.8391 29.7822C51.1305 29.7822 47.7948 30.1508 44.4058 31.4564C46.9409 33.3149 48.9957 35.9567 50.3433 39.0747L60.0702 37.3698L59.1362 30.2583C58.1221 30.0586 56.2275 29.7822 53.8391 29.7822ZM35.4928 31.3181C28.8348 31.3181 23.431 37.5387 23.431 45.2032C23.431 52.8676 28.8348 59.0882 35.4928 59.0882C42.1509 59.0882 47.5547 52.8676 47.5547 45.2032C47.5547 37.5387 42.1509 31.3181 35.4928 31.3181ZM10.1776 39.5048L10.3591 52.6372L4.12402 66H6.65114L11.0863 56.4771L13.113 66H15.412L12.5847 52.7908L12.4072 39.8888L10.1776 39.5048ZM59.4564 39.7352L57.5617 40.0731L57.455 51.4545L54.226 60.0098L55.2134 63.8497L58.5091 55.0947L62.632 66H65.0604L59.5631 51.4545L59.4564 39.7352ZM22.1367 41.5169C21.5096 43.3754 21.1761 45.3875 21.1761 47.4917C21.1761 56.6307 27.5939 64.0033 35.4928 64.0033C43.3917 64.0033 49.8096 56.6307 49.8096 47.4917C49.8096 45.3875 49.476 43.3754 48.8489 41.5169C49.0891 42.6996 49.2225 43.9437 49.2225 45.2032C49.2225 53.866 43.0715 61.0849 35.4928 61.0849C27.9141 61.0849 21.7631 53.866 21.7631 45.2032C21.7631 43.9437 21.8966 42.6996 22.1367 41.5169ZM19.735 53.4052L17.0398 66H20.4689L22.0433 58.6274C21.056 56.9379 20.2687 55.2483 19.735 53.4052ZM51.2506 53.4052C50.7169 55.2483 49.9297 56.9379 48.9423 58.6274L50.5168 66H53.9458L51.2506 53.4052Z" fill="white"/>
<rect x="4.62402" y="0.5" width="62.2713" height="65" stroke="white" shape-rendering="crispEdges"/>
</g>
<defs>
<filter id="filter0_d_13_88" x="0.124023" y="0" width="71.2713" height="74" filterUnits="userSpaceOnUse" color-interpolation-filters="sRGB">
<feFlood flood-opacity="0" result="BackgroundImageFix"/>
<feColorMatrix in="SourceAlpha" type="matrix" values="0 0 0 0 0 0 0 0 0 0 0 0 0 0 0 0 0 0 127 0" result="hardAlpha"/>
<feOffset dy="4"/>
<feGaussianBlur stdDeviation="2"/>
<feComposite in2="hardAlpha" operator="out"/>
<feColorMatrix type="matrix" values="0 0 0 0 0 0 0 0 0 0 0 0 0 0 0 0 0 0 0.25 0"/>
<feBlend mode="normal" in2="BackgroundImageFix" result="effect1_dropShadow_13_88"/>
<feBlend mode="normal" in="SourceGraphic" in2="effect1_dropShadow_13_88" result="shape"/>
</filter>
</defs>
</svg>
