<svg width="40" height="40" viewBox="0 0 40 40" fill="none" xmlns="http://www.w3.org/2000/svg">
<path d="M17.1688 24.37L15.2563 22.4575C15.114 22.3193 14.9234 22.2419 14.725 22.2419C14.5266 22.2419 14.3361 22.3193 14.1938 22.4575C14.0555 22.5998 13.9782 22.7903 13.9782 22.9887C13.9782 23.1871 14.0555 23.3777 14.1938 23.52L16.1063 25.4325C16.3938 25.72 16.8688 25.72 17.1688 25.4325C17.4688 25.145 17.4688 24.67 17.1688 24.37ZM12.7438 24.9825L14.6563 26.895C14.9438 27.1825 14.9438 27.6575 14.6563 27.9575C14.514 28.0957 14.3234 28.173 14.125 28.173C13.9266 28.173 13.7361 28.0957 13.5938 27.9575L11.6813 26.045C11.543 25.9027 11.4657 25.7121 11.4657 25.5137C11.4657 25.3153 11.543 25.1248 11.6813 24.9825C11.8236 24.8443 12.0141 24.7669 12.2125 24.7669C12.4109 24.7669 12.6015 24.8443 12.7438 24.9825Z" fill="#52281C"/>
<path d="M34.3563 3.01998C34.3123 2.91631 34.2482 2.82236 34.1677 2.74356C34.0873 2.66475 33.992 2.60265 33.8874 2.56082C33.7829 2.51899 33.671 2.49827 33.5584 2.49984C33.4458 2.50141 33.3346 2.52525 33.2313 2.56998C32.7938 2.75748 32.5938 3.25748 32.7813 3.69498C32.8688 3.89498 33.0188 4.03248 33.2063 4.11998C33.3688 4.19498 33.5063 4.30748 33.5813 4.46998L33.7813 4.92998L32.615 5.46748L32.4188 5.01998C32.3521 4.85642 32.3476 4.6741 32.4063 4.50748C32.4563 4.33248 32.4563 4.11998 32.3813 3.91998C32.3373 3.81631 32.2732 3.72236 32.1927 3.64356C32.1123 3.56475 32.017 3.50265 31.9124 3.46082C31.8078 3.41899 31.696 3.39827 31.5834 3.39984C31.4708 3.40141 31.3596 3.42525 31.2563 3.46998C30.8188 3.65748 30.6188 4.15748 30.8063 4.59498C30.8938 4.79498 31.0438 4.93248 31.2313 5.01998C31.3938 5.09498 31.5313 5.20748 31.6063 5.36998L31.8113 5.83873L30.6325 6.38248L30.4325 5.91998C30.3965 5.83967 30.3768 5.75299 30.3747 5.66499C30.3725 5.577 30.3879 5.48946 30.42 5.40748C30.4866 5.21558 30.4776 5.00554 30.395 4.81998C30.351 4.71631 30.2869 4.62236 30.2065 4.54356C30.126 4.46475 30.0307 4.40265 29.9262 4.36082C29.8216 4.31899 29.7098 4.29827 29.5972 4.29984C29.4846 4.30141 29.3734 4.32525 29.27 4.36998C28.8325 4.55748 28.6325 5.05748 28.82 5.49498C28.9075 5.69498 29.0575 5.83248 29.245 5.91998C29.4075 5.99498 29.545 6.10748 29.62 6.26998L29.8288 6.75248L29.3563 6.96998C29.2344 7.03881 29.1287 7.13306 29.0465 7.24635C28.9643 7.35963 28.9075 7.48928 28.8798 7.6265C28.8522 7.76371 28.8545 7.90526 28.8864 8.04153C28.9184 8.17781 28.9793 8.3056 29.065 8.41623L28.9688 8.31998L18.2713 19.0175C17.9738 18.2618 17.9014 17.4363 18.0629 16.6404C18.2244 15.8445 18.6128 15.1124 19.1813 14.5325C19.9313 13.77 19.9688 12.545 19.2188 11.7825C18.4688 11.02 17.2313 11.02 16.4813 11.77C15.3188 12.9325 14.5813 14.37 14.2813 15.8825C13.9438 17.5825 12.5063 18.82 10.7813 18.9825C8.70625 19.17 6.69375 20.0575 5.11875 21.645C1.58125 25.22 1.63126 31.1075 5.24376 34.6075C8.80626 38.07 14.5063 38.0325 18.0313 34.5075C19.5434 32.9863 20.4726 30.982 20.6563 28.845C20.7299 28.0085 21.0732 27.2186 21.6345 26.5942C22.1959 25.9697 22.9449 25.5445 23.7688 25.3825C24.4563 25.245 25.1313 25.0075 25.7813 24.6825C26.7313 24.2075 27.1188 23.045 26.6438 22.095C26.4142 21.6382 26.0131 21.291 25.5281 21.1294C25.0432 20.9677 24.5139 21.0048 24.0563 21.2325C23.5256 21.5002 22.9438 21.6515 22.3499 21.6763C21.756 21.7011 21.1637 21.5988 20.6125 21.3762L31.315 10.675C31.4175 10.7631 31.5372 10.829 31.6665 10.8686C31.7958 10.9081 31.9318 10.9204 32.0661 10.9047C32.2004 10.8889 32.3299 10.8455 32.4466 10.7771C32.5632 10.7088 32.6644 10.6169 32.7438 10.5075L34.0938 8.24498C34.2438 7.99498 34.5438 7.88248 34.8188 7.99498C35.5313 8.26998 36.3688 8.11998 36.9188 7.51998C37.5938 6.79498 37.6063 5.65748 36.9438 4.93248C36.3188 4.24623 35.4363 4.20998 34.5788 4.56623L34.3813 4.13248C34.3146 3.96892 34.3101 3.7866 34.3688 3.61998C34.4438 3.43248 34.4438 3.21998 34.3563 3.01998ZM16.5063 18.995C16.8888 19.2162 17.1638 19.5862 17.2613 20.0275L17.0563 20.2325C16.7438 20.545 16.7438 21.045 17.0563 21.345L18.2938 22.5825C18.5988 22.8875 19.0825 22.895 19.385 22.605C19.7475 22.7025 20.3038 22.7812 20.6638 22.8325L20.9188 22.87C20.9477 22.8757 20.9769 22.8799 21.0063 22.8825C21.035 22.8862 21.0625 22.8887 21.0938 22.895L21.115 22.8975C21.36 22.925 22.0563 23.0037 22.8688 22.845C22.9213 22.8362 22.9738 22.825 23.0288 22.8137C23.4875 22.7212 24.0225 22.6137 24.2563 23.2825C24.3438 23.5075 24.2688 23.77 23.9438 23.9825C23.7563 24.1075 23.2938 24.2825 23.0813 24.3325C22.0563 24.57 21.3313 24.9825 20.6563 25.72C19.7563 26.57 19.2063 27.595 19.0063 28.7075C18.8563 29.5575 18.7063 30.395 18.3563 31.17C17.9813 31.97 17.4813 32.695 16.8438 33.3325C16.1188 34.07 15.2688 34.62 14.3313 34.995C13.4563 35.345 12.4438 34.9325 12.1063 34.0575C12.0313 33.87 11.9938 33.6575 11.9938 33.4575C11.9975 33.1425 12.0725 32.7887 12.1513 32.4175C12.3513 31.4775 12.5738 30.425 11.7313 29.5825L8.91876 26.77C7.66876 25.52 7.64375 23.4825 8.88126 22.2075L8.90625 22.1825C9.89375 21.1825 11.1938 20.67 12.5563 20.62C13.3688 20.5825 14.0688 20.17 14.4563 19.5325C14.7688 19.02 15.3438 18.745 15.9313 18.8075C16.1313 18.8325 16.3313 18.895 16.5063 18.995ZM11.7063 30.9575C11.8313 31.0825 11.8313 31.2825 11.6938 31.395L10.3688 32.72C10.2438 32.845 10.0438 32.845 9.91876 32.72L6.90626 29.7075C6.78126 29.5825 6.78126 29.3825 6.90626 29.2575L8.24375 27.945C8.36875 27.82 8.56875 27.82 8.69376 27.945L11.7063 30.9575Z" fill="#52281C"/>
</svg>
