<svg width="40" height="40" viewBox="0 0 40 40" fill="none" xmlns="http://www.w3.org/2000/svg">
<g clip-path="url(#clip0_7_10)">
<path d="M40 6.25C40 6.58854 39.8763 6.88151 39.6289 7.12891L34.0039 12.7539C33.7565 13.0013 33.4635 13.125 33.125 13.125C32.7474 13.125 32.4349 12.9818 32.1875 12.6953L22.3828 22.5H23.75C24.0885 22.5 24.3815 22.6237 24.6289 22.8711C24.8763 23.1185 25 23.4115 25 23.75V26.25C25 26.7708 24.9023 27.2591 24.707 27.7148C24.5117 28.1706 24.2448 28.5677 23.9062 28.9062C23.5677 29.2448 23.1706 29.5117 22.7148 29.707C22.2591 29.9023 21.7708 30 21.25 30C20.9115 30 20.6185 30.1237 20.3711 30.3711C20.1237 30.6185 20 30.9115 20 31.25C20 32.4609 19.7721 33.5938 19.3164 34.6484C18.8607 35.7031 18.2357 36.6341 17.4414 37.4414C16.6471 38.2487 15.7227 38.8737 14.668 39.3164C13.6133 39.7591 12.474 39.987 11.25 40C9.70052 40 8.24219 39.707 6.875 39.1211C5.50781 38.5352 4.31641 37.7279 3.30078 36.6992C2.28516 35.6706 1.48438 34.4792 0.898438 33.125C0.3125 31.7708 0.0130208 30.3125 0 28.75C0 27.5391 0.227865 26.4062 0.683594 25.3516C1.13932 24.2969 1.76432 23.3659 2.55859 22.5586C3.35286 21.7513 4.27734 21.1263 5.33203 20.6836C6.38672 20.2409 7.52604 20.013 8.75 20C9.08854 20 9.38151 19.8763 9.62891 19.6289C9.8763 19.3815 10 19.0885 10 18.75C10 18.0599 10.1302 17.4154 10.3906 16.8164C10.651 16.2174 11.0091 15.6836 11.4648 15.2148C11.9206 14.7461 12.4479 14.388 13.0469 14.1406C13.6458 13.8932 14.2969 13.763 15 13.75C15.8594 13.75 16.6406 13.9453 17.3438 14.3359C18.0469 14.7266 18.6458 15.2734 19.1406 15.9766L27.3047 7.8125C27.0182 7.5651 26.875 7.2526 26.875 6.875C26.875 6.53646 26.9987 6.24349 27.2461 5.99609L32.8711 0.371094C33.1185 0.123698 33.4115 0 33.75 0C34.0885 0 34.3815 0.123698 34.6289 0.371094L39.6289 5.37109C39.8763 5.61849 40 5.91146 40 6.25ZM22.5 25H19.375C19.0365 25 18.7435 24.8763 18.4961 24.6289L15.3711 21.5039C15.1237 21.2565 15 20.9635 15 20.625C15 20.2865 15.1237 19.9935 15.3711 19.7461L17.3047 17.8125C17.1224 17.3438 16.8229 16.9661 16.4062 16.6797C15.9896 16.3932 15.5208 16.25 15 16.25C14.6484 16.25 14.3229 16.3151 14.0234 16.4453C13.724 16.5755 13.4635 16.7513 13.2422 16.9727C13.0208 17.194 12.8385 17.4609 12.6953 17.7734C12.5521 18.0859 12.487 18.4115 12.5 18.75C12.5 19.2708 12.4023 19.7591 12.207 20.2148C12.0117 20.6706 11.7448 21.0677 11.4062 21.4062C11.0677 21.7448 10.6706 22.0117 10.2148 22.207C9.75911 22.4023 9.27083 22.5 8.75 22.5C7.89062 22.5 7.08333 22.6628 6.32812 22.9883C5.57292 23.3138 4.90885 23.763 4.33594 24.3359C3.76302 24.9089 3.3138 25.5729 2.98828 26.3281C2.66276 27.0833 2.5 27.8906 2.5 28.75C2.5 29.9609 2.72786 31.0938 3.18359 32.1484C3.63932 33.2031 4.26432 34.1276 5.05859 34.9219C5.85286 35.7161 6.77734 36.3411 7.83203 36.7969C8.88672 37.2526 10.026 37.487 11.25 37.5C12.1094 37.5 12.9167 37.3372 13.6719 37.0117C14.4271 36.6862 15.0846 36.2435 15.6445 35.6836C16.2044 35.1237 16.6536 34.4596 16.9922 33.6914C17.3307 32.9232 17.5 32.1094 17.5 31.25C17.5 30.7292 17.5977 30.2409 17.793 29.7852C17.9883 29.3294 18.2552 28.9323 18.5938 28.5938C18.9323 28.2552 19.3294 27.9883 19.7852 27.793C20.2409 27.5977 20.7292 27.5 21.25 27.5C21.5885 27.5 21.8815 27.3763 22.1289 27.1289C22.3763 26.8815 22.5 26.5885 22.5 26.25V25ZM19.375 21.9922L30.4297 10.9375L29.0625 9.57031L18.0078 20.625L19.375 21.9922ZM33.125 10.1172L36.9922 6.25L33.75 3.00781L29.8828 6.875L33.125 10.1172ZM6.93359 28.6914L8.69141 26.9336L13.0664 31.3086L11.3086 33.0664L6.93359 28.6914ZM10.6836 24.9414L12.4414 23.1836L16.8164 27.5586L15.0586 29.3164L10.6836 24.9414Z" fill="#52281C"/>
</g>
<defs>
<clipPath id="clip0_7_10">
<rect width="40" height="40" fill="white"/>
</clipPath>
</defs>
</svg>
