<svg width="72" height="74" viewBox="0 0 72 74" fill="none" xmlns="http://www.w3.org/2000/svg">
<g filter="url(#filter0_d_13_81)">
<path d="M35.7597 61.875C30.2849 61.875 24.933 60.1815 20.3808 57.0087C15.8287 53.8359 12.2807 49.3262 10.1856 44.05C8.09045 38.7738 7.54227 32.968 8.61036 27.3668C9.67844 21.7656 12.3148 16.6205 16.1861 12.5823C20.0574 8.54406 24.9897 5.79399 30.3593 4.67984C35.729 3.56569 41.2947 4.13751 46.3528 6.32299C51.4109 8.50847 55.7341 12.2095 58.7758 16.9579C61.8174 21.7064 63.4409 27.2891 63.4409 33C63.4409 40.6581 60.5245 48.0026 55.3332 53.4177C50.142 58.8328 43.1012 61.875 35.7597 61.875ZM35.7597 6.55876C30.7463 6.55876 25.8455 8.10952 21.677 11.0149C17.5086 13.9203 14.2596 18.0499 12.3411 22.8814C10.4226 27.7129 9.9206 33.0293 10.8987 38.1584C11.8767 43.2875 14.2909 47.9989 17.8359 51.6968C21.3809 55.3947 25.8975 57.913 30.8145 58.9332C35.7316 59.9534 40.8282 59.4298 45.46 57.4285C50.0917 55.4273 54.0505 52.0382 56.8358 47.69C59.6211 43.3417 61.1077 38.2296 61.1077 33C61.1077 29.5277 60.4521 26.0894 59.1782 22.8814C57.9044 19.6734 56.0373 16.7585 53.6835 14.3032C51.3297 11.8479 48.5353 9.90028 45.46 8.57148C42.3846 7.24269 39.0884 6.55876 35.7597 6.55876Z" fill="white"/>
<path d="M9.62071 31.7831H61.8789V34.2169H9.62071V31.7831ZM36.3924 21.5944C28.4474 21.6348 20.5333 20.5595 12.8634 18.3975L13.5356 16.0669C13.7531 16.0669 35.8388 22.9144 57.8849 16.0669L58.5373 18.3975C51.3416 20.569 43.883 21.6458 36.3924 21.5944ZM13.5949 49.3144L12.9227 46.9838C35.6608 39.93 57.6674 46.695 58.5967 46.9838L57.9244 49.3144C57.7069 49.2319 35.641 42.4669 13.5949 49.3144Z" fill="white"/>
<path d="M26.8028 59.3175C19.9684 42.4562 19.4463 23.534 25.3397 6.29064L27.4751 7.23939C21.8186 23.8741 22.3406 42.1156 28.9382 58.3688L26.8028 59.3175ZM44.5386 59.3175L42.4032 58.3688C48.9957 42.1216 49.5177 23.8885 43.8663 7.26001L46.0017 6.31126C51.888 23.5488 51.366 42.4618 44.5386 59.3175ZM34.5931 5.73376H36.9262V61.2563H34.5931V5.73376Z" fill="white"/>
<rect x="4.62402" y="0.5" width="62.2713" height="65" stroke="white" shape-rendering="crispEdges"/>
</g>
<defs>
<filter id="filter0_d_13_81" x="0.124023" y="0" width="71.2713" height="74" filterUnits="userSpaceOnUse" color-interpolation-filters="sRGB">
<feFlood flood-opacity="0" result="BackgroundImageFix"/>
<feColorMatrix in="SourceAlpha" type="matrix" values="0 0 0 0 0 0 0 0 0 0 0 0 0 0 0 0 0 0 127 0" result="hardAlpha"/>
<feOffset dy="4"/>
<feGaussianBlur stdDeviation="2"/>
<feComposite in2="hardAlpha" operator="out"/>
<feColorMatrix type="matrix" values="0 0 0 0 0 0 0 0 0 0 0 0 0 0 0 0 0 0 0.25 0"/>
<feBlend mode="normal" in2="BackgroundImageFix" result="effect1_dropShadow_13_81"/>
<feBlend mode="normal" in="SourceGraphic" in2="effect1_dropShadow_13_81" result="shape"/>
</filter>
</defs>
</svg>
