<svg width="40" height="40" viewBox="0 0 40 40" fill="none" xmlns="http://www.w3.org/2000/svg">
<g clip-path="url(#clip0_7_60)">
<path d="M31.5 16L24.02 8.50002C23.9068 6.87398 24.2943 5.25228 25.1303 3.85303C25.9663 2.45377 27.2108 1.34409 28.6963 0.673211C30.1818 0.00233459 31.8371 -0.197552 33.4396 0.100435C35.0421 0.398422 36.5149 1.17999 37.66 2.34002C38.8163 3.488 39.5944 4.96166 39.8904 6.56389C40.1864 8.16613 39.9861 9.82055 39.3163 11.3059C38.6465 12.7912 37.5391 14.0365 36.1423 14.8754C34.7455 15.7143 33.1259 16.1066 31.5 16ZM3.7 30.6L22.1 12.22L27.76 17.88L9.36 36.28L3.72 30.6H3.7ZM0.899997 36.26L5.12 32.02L7.96 34.86L3.72 39.1L0.879997 36.26H0.899997ZM20 30L24 26V40H20V30Z" fill="#52281C"/>
</g>
<defs>
<clipPath id="clip0_7_60">
<rect width="40" height="40" fill="white"/>
</clipPath>
</defs>
</svg>
