<svg width="72" height="74" viewBox="0 0 72 74" fill="none" xmlns="http://www.w3.org/2000/svg">
<g filter="url(#filter0_d_13_70)">
<path d="M9.39664 47.85V7.15C9.39664 6.71239 9.56329 6.29271 9.85993 5.98327C10.1566 5.67384 10.5589 5.5 10.9784 5.5H49.9957C50.2035 5.5 50.4091 5.54268 50.6011 5.6256C50.793 5.70852 50.9673 5.83006 51.1142 5.98327C51.2611 6.13649 51.3776 6.31839 51.4571 6.51857C51.5366 6.71876 51.5775 6.93332 51.5775 7.15V47.85C51.5775 48.0667 51.5366 48.2812 51.4571 48.4814C51.3776 48.6816 51.2611 48.8635 51.1142 49.0167C50.9673 49.1699 50.793 49.2915 50.6011 49.3744C50.4091 49.4573 50.2035 49.5 49.9957 49.5H10.9784C10.7707 49.5 10.565 49.4573 10.3731 49.3744C10.1812 49.2915 10.0068 49.1699 9.85993 49.0167C9.71305 48.8635 9.59653 48.6816 9.51704 48.4814C9.43755 48.2812 9.39664 48.0667 9.39664 47.85Z" stroke="white" stroke-width="2.5"/>
<path d="M25.2145 60.5H60.5409C60.7487 60.5 60.9544 60.4573 61.1463 60.3744C61.3382 60.2915 61.5126 60.1699 61.6594 60.0167C61.8063 59.8635 61.9228 59.6816 62.0023 59.4814C62.0818 59.2812 62.1227 59.0667 62.1227 58.85V22M33.1234 34.375C33.1234 35.469 32.7067 36.5182 31.9651 37.2918C31.2235 38.0654 30.2177 38.5 29.1689 38.5C28.1201 38.5 27.1143 38.0654 26.3727 37.2918C25.6311 36.5182 25.2145 35.469 25.2145 34.375C25.2145 33.281 25.6311 32.2318 26.3727 31.4582C27.1143 30.6846 28.1201 30.25 29.1689 30.25C30.2177 30.25 31.2235 30.6846 31.9651 31.4582C32.7067 32.2318 33.1234 33.281 33.1234 34.375ZM33.1234 34.375V18.15C33.1234 17.7124 33.29 17.2927 33.5867 16.9833C33.8833 16.6738 34.2856 16.5 34.7052 16.5H38.396" stroke="white" stroke-width="2.5" stroke-linecap="round"/>
<rect x="4.62402" y="0.5" width="62.2713" height="65" stroke="white" shape-rendering="crispEdges"/>
</g>
<defs>
<filter id="filter0_d_13_70" x="0.124023" y="0" width="71.2713" height="74" filterUnits="userSpaceOnUse" color-interpolation-filters="sRGB">
<feFlood flood-opacity="0" result="BackgroundImageFix"/>
<feColorMatrix in="SourceAlpha" type="matrix" values="0 0 0 0 0 0 0 0 0 0 0 0 0 0 0 0 0 0 127 0" result="hardAlpha"/>
<feOffset dy="4"/>
<feGaussianBlur stdDeviation="2"/>
<feComposite in2="hardAlpha" operator="out"/>
<feColorMatrix type="matrix" values="0 0 0 0 0 0 0 0 0 0 0 0 0 0 0 0 0 0 0.25 0"/>
<feBlend mode="normal" in2="BackgroundImageFix" result="effect1_dropShadow_13_70"/>
<feBlend mode="normal" in="SourceGraphic" in2="effect1_dropShadow_13_70" result="shape"/>
</filter>
</defs>
</svg>
