<svg width="30" height="30" viewBox="0 0 30 30" fill="none" xmlns="http://www.w3.org/2000/svg">
<path d="M26.2077 19.5642C23.5387 20.5834 19.8663 20.9876 17.4408 21.1399L19.4767 22.3466L26.9091 26.8159C29.6269 28.4911 25.2044 31.1095 22.4574 29.4928C20.5969 28.3564 17.8694 26.7163 15.025 25.0059L7.59255 29.4869C4.84556 31.0977 0.423111 28.456 3.1701 26.81C5.05986 25.6737 7.75814 24.0335 10.6025 22.3407L12.6092 21.134C10.2129 20.9818 6.48206 20.601 3.78378 19.5584C0.608192 18.3283 -0.784782 17.6078 0.442594 16.1024C1.16343 15.2472 3.14087 14.5267 5.76122 15.7685C5.76122 15.7685 9.29724 17.4614 15.0055 17.4614C20.7138 17.4614 24.2498 15.7685 24.2498 15.7685C26.8701 14.5326 28.8378 15.2472 29.5684 16.1024C30.7763 17.6078 29.3833 18.3283 26.2077 19.5642ZM2.36159 7.59724C2.36159 3.39738 8.04064 0 14.9958 0C21.9509 0 27.6299 3.39738 27.6299 7.59724C27.6299 11.7795 21.9509 15.1769 14.9958 15.1769C8.04064 15.1769 2.36159 11.7795 2.36159 7.59724ZM8.7907 7.59724C8.7907 9.65324 11.5766 11.3285 14.9958 11.3285C18.4149 11.3285 21.2008 9.65324 21.2008 7.59724C21.2008 5.52367 18.4149 3.84841 14.9958 3.84841C11.5766 3.84841 8.7907 5.52367 8.7907 7.59724Z" fill="white"/>
</svg>
