<svg width="40" height="40" viewBox="0 0 40 40" fill="none" xmlns="http://www.w3.org/2000/svg">
<path fill-rule="evenodd" clip-rule="evenodd" d="M36.5217 40C37.4442 40 38.3289 39.5317 38.9812 38.6983C39.6335 37.8648 40 36.7343 40 35.5556V4.44444C40 3.2657 39.6335 2.13524 38.9812 1.30175C38.3289 0.468252 37.4442 0 36.5217 0H3.47826C2.55577 0 1.67106 0.468252 1.01876 1.30175C0.366459 2.13524 0 3.2657 0 4.44444V35.5556C0 36.7343 0.366459 37.8648 1.01876 38.6983C1.67106 39.5317 2.55577 40 3.47826 40H36.5217ZM17.3913 4.44444H13.887V22.2222H12.1478V35.5556H19.1304V22.2222H17.3913V4.44444ZM29.5913 35.5556H36.5217V4.44444H31.3304V22.2222H29.5913V35.5556ZM27.8522 22.2222H26.113V4.44444H22.6087V22.2222H20.8696V35.5556H27.8522V22.2222ZM10.4087 35.5556V22.2222H8.66957V4.44444H3.47826V35.5556H10.4087Z" fill="#52281C"/>
</svg>
