<svg width="72" height="74" viewBox="0 0 72 74" fill="none" xmlns="http://www.w3.org/2000/svg">
<g filter="url(#filter0_d_133_25)">
<path d="M18.2755 44.0307L18.3459 44.0677L18.3322 43.9894C17.74 40.6026 17.513 36.178 17.6517 31.905C17.7901 27.64 18.2927 23.5297 19.1582 20.7546C21.5011 19.6982 25.7861 18.877 30.156 18.8493C32.7691 18.8328 35.4099 19.1 37.6818 19.7695C36.5091 23.8659 36.3579 27.8535 36.571 31.9798C36.6779 34.0491 36.8765 36.1537 37.0839 38.3243L37.1025 38.5191C37.3041 40.6286 37.5118 42.8011 37.6502 45.066C37.6494 47.884 34.7988 50.182 31.2632 50.182C27.7273 50.182 24.8763 47.8834 24.8763 45.0648C24.8763 42.2462 27.7273 39.9477 31.2632 39.9477C32.5065 39.9491 33.7218 40.2414 34.7603 40.788L34.8307 40.8251L34.817 40.7467C34.0258 36.2225 33.887 30.5375 34.3998 25.6043L34.4035 25.5685L34.3682 25.5619C30.1758 24.7734 25.724 25.7405 21.4429 26.6706C21.0201 26.7624 20.599 26.8539 20.18 26.9433L20.1523 26.9492L20.1493 26.9774C19.4673 33.4679 20.4037 41.9703 21.1655 48.3097C21.1639 51.1271 18.3135 53.4245 14.7786 53.4245C11.2427 53.4245 8.39166 51.1259 8.39166 48.3074C8.39166 45.4889 11.2427 43.1902 14.7785 43.1902C16.0217 43.1917 17.237 43.484 18.2755 44.0307ZM35.0913 21.1638L35.0999 21.1241L35.0599 21.117C33.715 20.8778 32.2771 20.7772 30.8297 20.7866C27.1317 20.8106 23.367 21.5541 20.9245 22.5512L20.9061 22.5587L20.9013 22.578C20.7456 23.2135 20.6104 23.8542 20.4958 24.4991L20.4854 24.558L20.5435 24.544C24.9611 23.4779 29.98 22.5741 34.6571 23.2999L34.6957 23.3058L34.7017 23.2673C34.8158 22.5376 34.945 21.8331 35.0913 21.1638ZM63.1278 33C63.1278 42.137 57.3683 51.2778 45.8406 55.4791C53.466 51.2322 57.2742 42.1124 57.2742 33C57.2742 23.8876 53.466 14.7678 45.8406 10.5209C57.3683 14.7222 63.1278 23.863 63.1278 33ZM51.2644 33.0683C51.2644 41.6818 47.3914 50.2863 39.6561 53.6278C41.5472 51.9504 42.9692 49.0207 43.9266 45.4618C44.9162 41.7827 45.4108 37.4251 45.4108 33.0683C45.4108 28.7116 44.9162 24.354 43.9266 20.6748C42.9692 17.116 41.5472 14.1862 39.6561 12.5088C47.3914 15.8503 51.2644 24.4549 51.2644 33.0683Z" fill="white" stroke="white" stroke-width="0.078125"/>
<rect x="4.62402" y="0.5" width="62.2713" height="65" stroke="white" shape-rendering="crispEdges"/>
</g>
<defs>
<filter id="filter0_d_133_25" x="0.124023" y="0" width="71.2713" height="74" filterUnits="userSpaceOnUse" color-interpolation-filters="sRGB">
<feFlood flood-opacity="0" result="BackgroundImageFix"/>
<feColorMatrix in="SourceAlpha" type="matrix" values="0 0 0 0 0 0 0 0 0 0 0 0 0 0 0 0 0 0 127 0" result="hardAlpha"/>
<feOffset dy="4"/>
<feGaussianBlur stdDeviation="2"/>
<feComposite in2="hardAlpha" operator="out"/>
<feColorMatrix type="matrix" values="0 0 0 0 0 0 0 0 0 0 0 0 0 0 0 0 0 0 0.25 0"/>
<feBlend mode="normal" in2="BackgroundImageFix" result="effect1_dropShadow_133_25"/>
<feBlend mode="normal" in="SourceGraphic" in2="effect1_dropShadow_133_25" result="shape"/>
</filter>
</defs>
</svg>
