<svg width="30" height="25" viewBox="0 0 30 25" fill="none" xmlns="http://www.w3.org/2000/svg">
<path d="M29.3163 1.69531C29.5223 0.71875 29.3163 0 28.325 0H25.0447C24.2093 0 23.825 0.617187 23.619 1.30469C23.619 1.30469 21.9482 7.01562 19.5869 10.7188C18.8239 11.7891 18.473 12.1328 18.0554 12.1328C17.8493 12.1328 17.5318 11.7891 17.5318 10.8125V1.69531C17.5318 0.523437 17.2979 0 16.6074 0H11.4503C10.9268 0 10.6149 0.546875 10.6149 1.05469C10.6149 2.16406 11.7956 2.42188 11.9181 5.54688V12.3281C11.9181 13.8125 11.7287 14.0859 11.311 14.0859C10.1972 14.0859 7.49058 8.35156 5.88665 1.78906C5.56363 0.515625 5.24619 0 4.40524 0H1.12498C0.189353 0 0 0.617187 0 1.30469C0 2.52344 1.11384 8.57813 5.18493 16.5781C7.89713 22.0391 11.7176 25 15.1928 25C17.2812 25 17.5374 24.3438 17.5374 23.2109C17.5374 17.9922 17.3481 17.5 18.3951 17.5C18.8796 17.5 19.715 17.8438 21.6642 20.4766C23.8919 23.6016 24.2594 25 25.5069 25H28.7872C29.7228 25 30.1962 24.3438 29.9233 23.0469C29.2996 20.3203 25.0837 14.7109 24.8943 14.3359C24.4098 13.4609 24.549 13.0703 24.8943 12.2891C24.8999 12.2812 28.9042 4.375 29.3163 1.69531Z" fill="white"/>
</svg>
