<svg width="35" height="36" viewBox="0 0 35 36" fill="none" xmlns="http://www.w3.org/2000/svg">
<path d="M22.3938 0C19.1734 0 15.9529 1.24048 13.4928 3.72144C12.069 5.15589 11.0626 6.84444 10.4587 8.64126C11.7186 8.46083 12.9114 8.43827 14.0892 8.55856C14.3799 8.14507 14.708 7.75413 15.0732 7.38574C16.8102 5.63704 19.0839 4.76194 21.3651 4.76194C23.6462 4.76194 25.9274 5.63704 27.6643 7.38574C31.1382 10.8892 31.1382 16.5879 27.6643 20.0838C24.1979 23.5872 18.5397 23.5872 15.0732 20.0838C13.4183 18.4147 12.5461 16.242 12.4715 14.0543C11.6142 14.1896 10.7718 14.4753 9.99655 14.9113C10.4289 17.3923 11.5919 19.7605 13.4928 21.6776C18.413 26.6395 26.3821 26.647 31.3022 21.6776C36.2224 16.7157 36.2224 8.68637 31.3022 3.72144C28.8422 1.24048 25.6143 0 22.3938 0ZM9.41508 10.2877C7.33521 10.8666 5.02125 12.1973 3.69356 13.5957C0.15255 17.1592 -0.838932 22.3166 0.704202 26.7748C1.36842 28.5867 2.46054 30.3158 3.69356 31.5563C8.61742 36.5182 16.5866 36.5182 21.5067 31.5563C22.9306 30.1204 23.9369 28.4288 24.5408 26.632C23.3331 26.8199 22.1105 26.85 20.9029 26.7222C20.6196 27.1282 20.2916 27.5191 19.9263 27.8875C15.2522 30.8722 9.65364 30.9398 7.0072 27.5567C5.47375 25.602 4.61795 23.1361 4.72977 21.1062C4.9221 17.9787 6.73137 15.0993 9.03489 13.7009C9.79528 13.2574 11.8379 12.5657 13.627 12.5657C16.1393 12.6785 18.1446 13.4002 19.9263 15.1895C21.5887 16.851 22.446 19.0312 22.5205 21.2265C23.3853 21.0912 24.2277 20.8055 25.003 20.3694C24.3022 17.2419 22.9976 14.8662 20.9849 13.0995C19.3895 11.6936 17.6973 10.7388 15.7218 10.2727C13.6047 9.74642 11.3533 9.78401 9.41508 10.2877Z" fill="#52281C"/>
</svg>
