<svg width="35" height="36" viewBox="0 0 35 36" fill="none" xmlns="http://www.w3.org/2000/svg">
<path d="M27.5 0.277755C28.6021 0.278879 29.6903 0.522859 30.6874 0.992336C31.6844 1.46181 32.5658 2.14525 33.2687 2.99403C33.9716 3.8428 34.4788 4.83606 34.7543 5.90313C35.0297 6.9702 35.0667 8.08487 34.8624 9.16782C34.6581 10.2508 34.2177 11.2754 33.5725 12.1688C32.9273 13.0623 32.0931 13.8025 31.1293 14.3369C30.1655 14.8713 29.0957 15.1868 27.9962 15.2608C26.8966 15.3348 25.7942 15.1656 24.7675 14.7653L16.25 26.1128V32.7778H20C20.3315 32.7778 20.6495 32.9095 20.8839 33.1439C21.1183 33.3783 21.25 33.6962 21.25 34.0278C21.25 34.3593 21.1183 34.6772 20.8839 34.9116C20.6495 35.1461 20.3315 35.2778 20 35.2778H10C9.66848 35.2778 9.35054 35.1461 9.11612 34.9116C8.8817 34.6772 8.75 34.3593 8.75 34.0278C8.75 33.6962 8.8817 33.3783 9.11612 33.1439C9.35054 32.9095 9.66848 32.7778 10 32.7778H13.75V26.1128L0.5 8.46276C0.175445 8.03001 0 7.50368 0 6.96275V6.54525C0 6.21373 0.131696 5.89579 0.366116 5.66137C0.600537 5.42695 0.918479 5.29525 1.25 5.29525H4.055L1.495 2.02025C1.29078 1.75902 1.19871 1.42735 1.23903 1.09823C1.27935 0.7691 1.44876 0.469471 1.71 0.265255C1.97124 0.061038 2.3029 -0.0310381 2.63203 0.00928223C2.96115 0.0496026 3.26078 0.219016 3.465 0.480255L7.225 5.29525H20.4175C20.9325 3.82809 21.8907 2.5572 23.1595 1.65833C24.4283 0.759459 25.9451 0.27703 27.5 0.277755ZM23.16 5.29525H28.75C29.0815 5.29525 29.3995 5.42695 29.6339 5.66137C29.8683 5.89579 30 6.21373 30 6.54525V6.96025C30 7.50118 29.8246 8.02751 29.5 8.46025L26.3575 12.6478C27.2604 12.8593 28.2044 12.8156 29.0839 12.5214C29.9635 12.2273 30.7438 11.6943 31.3378 10.9821C31.9318 10.2699 32.3161 9.40654 32.4476 8.48851C32.579 7.57048 32.4526 6.63398 32.0824 5.78367C31.7122 4.93337 31.1128 4.20278 30.3513 3.67357C29.5897 3.14436 28.6959 2.83739 27.7699 2.78698C26.8439 2.73656 25.9221 2.94468 25.1075 3.38808C24.293 3.83147 23.6178 4.49267 23.1575 5.29775V5.29525H23.16ZM9.18 7.79525L14.2375 14.2703C14.4302 14.5323 14.5131 14.8592 14.4686 15.1814C14.4241 15.5037 14.2558 15.7959 13.9994 15.996C13.743 16.1961 13.4186 16.2884 13.0953 16.2533C12.7719 16.2181 12.4749 16.0583 12.2675 15.8078L6.0075 7.79525H3.125L15 23.6128L26.875 7.79525H9.18Z" fill="#52281C"/>
</svg>
